The Burbs is a 1989 American black comedy thriller film directed by Joe Dante starring Tom Hanks, Bruce Dern, Carrie Fisher, Rick Ducommun, Corey Feldman and the late Henry Gibson. The film was written by Dana Olsen, who also has a cameo in the movie. The film pokes fun at suburban environments and their eccentric dwellers.
An overstressed suburbanite and his paramilitaric neighbor struggle to prove their paranoid theory that the new family in town is a front for a cannibalistic cult.
 
http://www.imdb.com/title/tt0096734/
 
http://www.youtube.com/watch?v=aF_qxOa9Fzc&feature=player_embedded

Tom Hanks as Ray Peterson
Bruce Dern as Lt. Mark Rumsfield
Carrie Fisher as Carol Peterson
Rick Ducommun as Art Weingartner
Corey Feldman as Ricky Butler
Henry Gibson as Dr. Werner Klopek
Brother Theodore as Uncle Reuben Klopek
Courtney Gains as Hans Klopek
 
http://img24.imageshack.us/img24/2203/85988377.png 
http://img820.imageshack.us/img820/9296/78614122.png 
http://img243.imageshack.us/img243/6958/45682095.png 
http://img843.imageshack.us/img843/8145/86462509.png



General
Complete name : The Burbs - 1989 (Dvdrip,Xvid)THE_BURBS.avi
Format : AVI
Format/Info : Audio Video Interleave
File size : 701 MiB
Duration : 1h 37mn
Overall bit rate : 1 008 Kbps
Writing application : VirtualDubMod 1.5.4.1 (build 2178/release)
Writing library : VirtualDubMod build 2178/release

Video
ID : 0
Format : MPEG-4 Visual
Format profile : Advanced Simple@L5
Format settings, BVOP : Yes
Format settings, QPel : No
Format settings, GMC : No warppoints
Format settings, Matrix : Default (H.263)
Muxing mode : Packed bitstream
Codec ID : XVID
Codec ID/Hint : XviD
Duration : 1h 37mn
Bit rate : 881 Kbps
Width : 608 pixels
Height : 336 pixels
Display aspect ratio : 16:9
Frame rate : 25.000 fps
Color space : YUV
Chroma subsampling : 4:2:0
Bit depth : 8 bits
Scan type : Progressive
Bits/(Pixel*Frame) : 0.173
Stream size : 613 MiB (87%)
Writing library : XviD 1.2.1 (UTC 2008-12-04)

Audio
ID : 1
Format : MPEG Audio
Format version : Version 1
Format profile : Layer 3
Mode : Joint stereo
Codec ID : 55
Codec ID/Hint : MP3
Duration : 1h 37mn
Bit rate mode : Variable
Bit rate : 114 Kbps
Nominal bit rate : 128 Kbps
Channel(s) : 2 channels
Sampling rate : 48.0 KHz
Stream size : 79.3 MiB (11%)
Alignment : Aligned on interleaves
Interleave, duration : 24 ms (0.60 video frame)
Interleave, preload duration : 481 ms
Writing library : LAME3.98r
Encoding settings : -m j -V 4 -q 2 -lowpass 17 --abr 128
Language : English

